<?xml version="1.0" encoding="utf-8"?>
<!-- Generator: Adobe Illustrator 26.0.1, SVG Export Plug-In . SVG Version: 6.00 Build 0)  -->
<svg version="1.1" xmlns="http://www.w3.org/2000/svg" xmlns:xlink="http://www.w3.org/1999/xlink" x="0px" y="0px"
	 viewBox="0 0 1300 1000" style="enable-background:new 0 0 1300 1000;" xml:space="preserve">
<style type="text/css">
	.st0{display:none;}
	.st1{display:inline;opacity:0.2;fill:#00FFFF;}
	.st2{display:inline;}
	.st3{fill:#00FFFF;}
	.st4{font-family:'Montserrat-Medium';}
	.st5{font-size:20.7106px;}
	.st6{fill:#06113D;}
	.st7{fill:#FFFFFF;}
	.st8{fill:none;stroke:#00FFFF;stroke-width:1.7259;stroke-miterlimit:10;}
	.st9{display:inline;fill:none;stroke:#00FFFF;stroke-width:1.7259;stroke-miterlimit:10;}
	.st10{display:inline;fill:none;stroke:#00FFFF;stroke-width:1.7273;stroke-miterlimit:10;}
</style>
<g id="Safety_Area" class="st0">
	<path class="st1" d="M0,0v1000h1300V0H0z M1150,850H150V150h1000V850z"/>
	<rect x="150" y="650" class="st1" width="1000" height="100"/>
	<rect x="150" y="810" class="st1" width="1000" height="40"/>
	<rect x="450" y="150" class="st1" width="400" height="400"/>
	<g class="st2">
		<text transform="matrix(1 0 0 1 51.5361 82.1671)" class="st3 st4 st5">1.5 X</text>
	</g>
	<g class="st2">
		<text transform="matrix(1 0 0 1 66.637 605.6075)" class="st3 st4 st5">X</text>
	</g>
	<g class="st2">
		<text transform="matrix(1 0 0 1 59.5205 354.0452)" class="st3 st4 st5">4X</text>
	</g>
	<g class="st2">
		<text transform="matrix(1 0 0 1 635.9648 82.7003)" class="st3 st4 st5">4X</text>
	</g>
	<g class="st2">
		<text transform="matrix(1 0 0 1 51.5361 932.1671)" class="st3 st4 st5">1.5 X</text>
	</g>
	<g class="st2">
		<text transform="matrix(1 0 0 1 1208.2283 353.0558)" class="st3 st4 st5">1.5 X</text>
	</g>
	<g class="st2">
		<text transform="matrix(1 0 0 1 66.637 705.6075)" class="st3 st4 st5">X</text>
	</g>
	<g class="st2">
		<text transform="matrix(1 0 0 1 87.1531 787.3463)" class="st3 st4 st5">0.6 X</text>
	</g>
	<g class="st2">
		<text transform="matrix(1 0 0 1 86.6145 837.3463)" class="st3 st4 st5">0.4 X</text>
	</g>
</g>
<g id="Artwork">
	<g>
		<g>
			<g>
				<path class="st6" d="M212.34,653.79c7.32,2.52,13.71,7.5,19.17,14.92c5.46,7.42,8.18,17.85,8.18,31.29
					c0,19.29-5.13,32.45-15.37,39.47C214.07,746.49,202.73,750,190.3,750H150v-3.03c3.03,0,5.05-0.94,6.06-2.8
					c1-1.87,1.51-4.77,1.51-8.72v-70.91c0-3.94-0.51-6.84-1.51-8.71c-1.02-1.86-3.03-2.8-6.06-2.8V650h40.3
					C197.67,650,205.02,651.27,212.34,653.79 M215.53,733.48c7.02-6.97,10.53-18.13,10.53-33.48c0-15.35-3.51-26.51-10.53-33.49
					c-7.02-6.97-16.43-10.45-28.25-10.45h-16.07v87.88h16.07C199.09,743.94,208.51,740.46,215.53,733.48"/>
				<path class="st6" d="M536.93,653.03c-3.64,0-6.52,0.89-8.63,2.66c-2.12,1.76-3.84,4.47-5.16,8.11L494.19,750h-14.24l-27.88-90
					l-28.03,90H409.8l-28.79-86.21c-1.21-3.54-2.88-6.22-5-8.04c-2.12-1.82-5-2.72-8.64-2.72V650h38.64v3.03
					c-4.35,0-7.38,0.46-9.09,1.36c-1.72,0.91-2.57,2.33-2.57,4.24c0,1.11,0.35,2.83,1.06,5.16l25.31,76.36L448.89,650h14.25
					l28.03,90.15l25.6-76.36c0.81-2.12,1.21-3.89,1.21-5.31c0-1.82-0.88-3.18-2.65-4.09c-1.77-0.91-4.77-1.36-9.02-1.36V650h30.61
					V653.03z"/>
				<path class="st6" d="M553.72,746.97c3.03,0,5.05-0.94,6.06-2.81c1-1.86,1.51-4.77,1.51-8.71v-70.91c0-3.94-0.51-6.84-1.51-8.71
					c-1.01-1.86-3.03-2.8-6.06-2.8V650h18.92l65.77,84.7v-70.15c0-3.94-0.5-6.84-1.52-8.71c-1-1.86-3.03-2.8-6.05-2.8V650h21.21
					v3.04c-3.03,0-5.06,0.93-6.06,2.8c-1.02,1.87-1.52,4.77-1.52,8.71V750h-11.34l-65.77-84.7v70.15c0,3.94,0.5,6.85,1.52,8.71
					c1,1.87,3.03,2.81,6.06,2.81V750h-21.21V746.97z"/>
				<path class="st6" d="M856.41,671.06l-2.88,0.46c-0.81-5.96-2.27-10.03-4.39-12.2c-2.12-2.17-5.15-3.26-9.09-3.26h-20.31v79.39
					c0,3.94,0.51,6.85,1.52,8.72c1.01,1.86,3.03,2.8,6.06,2.8V750h-28.79v-3.03c3.03,0,5.05-0.94,6.06-2.8
					c1.02-1.87,1.52-4.77,1.52-8.72v-79.39H785.8c-3.94,0-6.97,1.09-9.09,3.26c-2.12,2.17-3.59,6.24-4.4,12.2l-2.87-0.46l2.12-18.03
					l0.46-3.03h81.81l0.46,3.03L856.41,671.06z"/>
				<path class="st6" d="M959.54,744.31c2.27,1.77,5.22,2.66,8.86,2.66V750h-38.79v-3.03c4.14,0,7.07-0.4,8.79-1.21
					c1.72-0.81,2.58-2.07,2.58-3.79c0-1.21-0.46-3.08-1.36-5.61l-12.27-31.96h-35.46l-12.27,31.96c-0.91,2.53-1.36,4.4-1.36,5.61
					c0,1.72,0.85,2.98,2.57,3.79c1.72,0.81,4.65,1.21,8.79,1.21V750h-30.6v-3.03c3.64,0,6.59-0.88,8.86-2.66
					c2.27-1.76,4.06-4.42,5.38-7.95l29.09-75.6c0.4-1.21,0.61-2.37,0.61-3.49c0-1.41-0.58-2.48-1.74-3.18
					c-1.17-0.7-3.21-1.06-6.13-1.06V650h25.91l33.18,86.36C955.47,739.9,957.27,742.55,959.54,744.31 M894.32,698.33h30.76
					l-15.45-39.85L894.32,698.33z"/>
				<path class="st6" d="M1054.87,671.06l-2.88,0.46c-0.81-5.96-2.27-10.03-4.39-12.2c-2.12-2.17-5.15-3.26-9.09-3.26h-20.31v79.39
					c0,3.94,0.51,6.85,1.52,8.72c1.01,1.86,3.03,2.8,6.06,2.8V750h-28.79v-3.03c3.03,0,5.05-0.94,6.06-2.8
					c1.02-1.87,1.52-4.77,1.52-8.72v-79.39h-20.31c-3.94,0-6.97,1.09-9.09,3.26c-2.12,2.17-3.59,6.24-4.4,12.2l-2.87-0.46
					l2.12-18.03l0.46-3.03h81.81l0.46,3.03L1054.87,671.06z"/>
				<path class="st6" d="M1150,728.94l-2.12,18.03l-0.46,3.03h-70.45v-3.03c3.03,0,5.05-0.94,6.06-2.8
					c1.01-1.87,1.52-4.77,1.52-8.72v-70.9c0-3.94-0.51-6.85-1.52-8.72c-1.01-1.86-3.03-2.8-6.06-2.8V650h68.94l0.45,3.04l2.12,18.03
					l-2.88,0.46c-0.81-5.96-2.27-10.02-4.39-12.2c-2.12-2.17-5.15-3.26-9.09-3.26h-33.94v40.15h20.91c3.94,0,6.84-0.5,8.71-1.52
					c1.86-1,2.8-3.03,2.8-6.06h3.04v21.21h-3.04c0-3.03-0.94-5.05-2.8-6.06c-1.87-1.01-4.77-1.51-8.71-1.51h-20.91v41.66h35.46
					c3.94,0,6.96-1.09,9.09-3.26c2.12-2.17,3.58-6.23,4.39-12.2L1150,728.94z"/>
				<path class="st6" d="M268.52,673.49c3.89-7.77,9.44-13.88,16.67-18.33c7.21-4.44,15.62-6.66,25.21-6.66
					c9.59,0,18,2.22,25.23,6.66c7.21,4.45,12.77,10.56,16.66,18.33c3.89,7.78,5.83,16.62,5.83,26.51c0,9.9-1.94,18.73-5.83,26.51
					c-3.89,7.78-9.44,13.89-16.66,18.33c-7.23,4.45-15.63,6.67-25.23,6.67c-9.6,0-18-2.22-25.21-6.67
					c-7.23-4.44-12.78-10.55-16.67-18.33c-3.89-7.77-5.83-16.61-5.83-26.51C262.69,690.11,264.63,681.27,268.52,673.49
					 M288.14,734.23c6.16,7.27,14.24,10.91,24.24,10.91c1,0,2.72-0.1,5.15-0.31c8.68-1.01,15.42-4.97,20.22-11.89
					c4.8-6.91,7.19-15.83,7.19-26.74c0-2.82-0.25-6.26-0.76-10.3c-1.51-12.82-5.36-22.88-11.51-30.14
					c-6.16-7.27-14.24-10.91-24.23-10.91c-1.01,0-2.72,0.1-5.15,0.3c-8.69,1.01-15.43,4.97-20.22,11.89
					c-4.8,6.92-7.2,15.82-7.2,26.74c0,2.82,0.25,6.26,0.76,10.3C278.14,716.91,281.98,726.96,288.14,734.23"/>
				<path class="st6" d="M714.54,691.51c-23.48-7.62-26.33-14.7-26.33-19.68c0-5.61,3.21-17.27,25.8-17.27
					c30.17,0,28.59,18.09,28.59,18.09l2.99-0.46l2.44-17.21c0,0-11.62-6.48-34.98-6.48c-27.43,0-38.47,12.79-38.47,26.51
					c0,10.17,5.84,19.73,34.39,28.78c29.13,9.23,30.29,16.69,30.29,22.98c0,12.31-10.86,18.68-28.16,18.68
					c-18.21,0-31.88-8.16-30.28-19.95l-3.5,0.54l-3.87,17.29c0,0,14.47,8.18,40,8.18c23.05,0,40-7.47,40-26.41
					C753.45,708.09,743.64,700.95,714.54,691.51z"/>
			</g>
			<g>
				<g>
					<path class="st6" d="M150,809.98h6.23v16.63h19.06v-16.63h6.23V850h-6.23v-17.38h-19.06V850H150V809.98z"/>
					<path class="st6" d="M197.93,809.98h25.56v5.9h-19.33v10.89h17.93v5.9h-17.93v11.43h19.39v5.9h-25.62V809.98z"/>
					<path class="st6" d="M259.83,840.14H245.1l-3.79,9.86h-6.72l15.92-40.02h4.06L270.34,850h-6.72L259.83,840.14z M247.11,834.4
						h10.83l-5.42-14.51L247.11,834.4z"/>
					<path class="st6" d="M282.32,809.98h6.23v34.01h21.12V850h-27.35V809.98z"/>
					<path class="st6" d="M313.54,816.04v-6.07h29.73v6.07h-11.7V850h-6.34v-33.96H313.54z"/>
					<path class="st6" d="M355.31,809.98h6.23v16.63h19.06v-16.63h6.23V850h-6.23v-17.38h-19.06V850h-6.23V809.98z"/>
					<path class="st6" d="M422.71,842.69l4.22-4.06c2.33,4.17,6.07,6.12,9.91,6.12c4.28,0,6.82-2.55,6.82-5.47
						c0-2.49-1.84-4.01-3.95-5.15c-2.65-1.35-5.9-2.44-8.67-4.06c-3.47-2.11-6.07-5.15-6.07-9.69c0-6.17,4.93-11.1,12.56-11.1
						c4.39,0,8.88,1.68,12.19,5.74l-3.85,4.28c-2.33-2.92-5.63-4.12-8.29-4.12c-3.41,0-5.96,1.9-5.96,4.87
						c0,2.33,1.62,3.79,3.36,4.77c2.17,1.25,6.66,3.03,9.42,4.6c3.63,2,6.12,4.93,6.12,9.53c0,6.88-5.74,11.7-13.7,11.7
						C431.16,850.65,425.69,848,422.71,842.69z"/>
					<path class="st6" d="M461.62,830.12c0-12.35,9.48-20.85,20.74-20.85c7.42,0,13.86,3.57,17.22,8.61l-4.44,4.01
						c-2.92-3.9-7.37-6.55-12.62-6.55c-8.01,0-14.46,6.23-14.46,14.78c0,8.5,6.28,14.46,14.41,14.46c5.31,0,9.86-2.55,12.89-6.5
						l4.44,3.9c-3.57,4.93-9.96,8.61-17.6,8.61C470.88,850.6,461.62,842.36,461.62,830.12z"/>
					<path class="st6" d="M518.82,809.98V850h-6.23v-40.02H518.82z"/>
					<path class="st6" d="M535.13,809.98h25.56v5.9h-19.33v10.89h17.93v5.9h-17.93v11.43h19.39v5.9h-25.62V809.98z"/>
					<path class="st6" d="M607.96,809.98V850h-3.68l-22.91-27.13V850h-6.17v-40.02h3.25l23.34,27.35v-27.35H607.96z"/>
					<path class="st6" d="M622.06,830.12c0-12.35,9.48-20.85,20.74-20.85c7.42,0,13.86,3.57,17.22,8.61l-4.44,4.01
						c-2.92-3.9-7.37-6.55-12.62-6.55c-8.01,0-14.46,6.23-14.46,14.78c0,8.5,6.28,14.46,14.41,14.46c5.31,0,9.86-2.55,12.89-6.5
						l4.44,3.9c-3.57,4.93-9.96,8.61-17.6,8.61C631.32,850.6,622.06,842.36,622.06,830.12z"/>
					<path class="st6" d="M673.06,809.98h25.56v5.9h-19.33v10.89h17.93v5.9h-17.93v11.43h19.39v5.9h-25.62V809.98z"/>
					<path class="st6" d="M709.82,842.69l4.22-4.06c2.33,4.17,6.07,6.12,9.91,6.12c4.28,0,6.82-2.55,6.82-5.47
						c0-2.49-1.84-4.01-3.95-5.15c-2.65-1.35-5.9-2.44-8.67-4.06c-3.47-2.11-6.07-5.15-6.07-9.69c0-6.17,4.93-11.1,12.56-11.1
						c4.39,0,8.88,1.68,12.19,5.74l-3.85,4.28c-2.33-2.92-5.63-4.12-8.29-4.12c-3.41,0-5.96,1.9-5.96,4.87
						c0,2.33,1.62,3.79,3.36,4.77c2.17,1.25,6.66,3.03,9.42,4.6c3.63,2,6.12,4.93,6.12,9.53c0,6.88-5.74,11.7-13.7,11.7
						C718.27,850.65,712.8,848,709.82,842.69z"/>
					<path class="st6" d="M775.43,836.14v-26.16h6.23v25.35c0,6.12,3.25,9.26,8.61,9.26c5.31,0,8.56-3.36,8.56-9.26v-25.35h6.28
						v26.16c0,9.48-6.34,14.57-14.84,14.57C781.82,850.7,775.43,845.61,775.43,836.14z"/>
					<path class="st6" d="M853.98,809.98V850h-3.68l-22.91-27.13V850h-6.17v-40.02h3.25l23.34,27.35v-27.35H853.98z"/>
					<path class="st6" d="M876.6,809.98V850h-6.23v-40.02H876.6z"/>
					<path class="st6" d="M926.41,809.98L909.57,850h-4.17l-17.01-40.02h7.15l12.02,29.73l11.91-29.73H926.41z"/>
					<path class="st6" d="M938.38,809.98h25.56v5.9H944.6v10.89h17.93v5.9H944.6v11.43h19.39v5.9h-25.62V809.98z"/>
					<path class="st6" d="M989.98,834.29h-5.31V850h-6.23v-40.02h14.13c8.77,0,12.94,6.01,12.94,12.19c0,4.93-2.87,9.86-8.94,11.54
						l10.67,16.3h-7.53L989.98,834.29z M984.68,828.5h6.93c5.47,0,7.47-3.2,7.47-6.39c0-3.3-2.17-6.23-6.5-6.23h-7.91V828.5z"/>
					<path class="st6" d="M1016.53,842.69l4.22-4.06c2.33,4.17,6.07,6.12,9.91,6.12c4.28,0,6.82-2.55,6.82-5.47
						c0-2.49-1.84-4.01-3.95-5.15c-2.65-1.35-5.9-2.44-8.67-4.06c-3.47-2.11-6.07-5.15-6.07-9.69c0-6.17,4.93-11.1,12.56-11.1
						c4.39,0,8.88,1.68,12.19,5.74l-3.85,4.28c-2.33-2.92-5.63-4.12-8.29-4.12c-3.41,0-5.96,1.9-5.96,4.87
						c0,2.33,1.62,3.79,3.36,4.77c2.17,1.25,6.66,3.03,9.42,4.6c3.63,2,6.12,4.93,6.12,9.53c0,6.88-5.74,11.7-13.7,11.7
						C1024.97,850.65,1019.5,848,1016.53,842.69z"/>
					<path class="st6" d="M1064.53,809.98V850h-6.23v-40.02H1064.53z"/>
					<path class="st6" d="M1076.5,816.04v-6.07h29.73v6.07h-11.7V850h-6.34v-33.96H1076.5z"/>
					<path class="st6" d="M1136.24,835.76V850h-6.23v-14.24l-13.59-25.78h7.04l9.69,19.39l9.8-19.39h7.04L1136.24,835.76z"/>
				</g>
			</g>
		</g>
		<g>
			<g>
				<path class="st6" d="M450,150v30c0,265,200,370,200,370s200-105,200-370v-30H450z M560.63,453.71
					c-27.78-33.21-49.91-70.36-65.76-110.44C475.05,293.16,465,238.23,465,180v-15h177.5v362.94
					C622,514.33,590.24,489.1,560.63,453.71z M739.37,453.71c-29.61,35.39-61.37,60.62-81.87,74.23V302.48h161.29
					c-3.87,13.91-8.41,27.52-13.66,40.79C789.28,383.35,767.15,420.5,739.37,453.71z M835,180c0,37.32-4.15,73.27-12.33,107.48
					H657.5V165H835V180z"/>
				<path class="st6" d="M741.71,216.77c0-3.88-2.08-7.45-5.44-9.38l-26.06-14.89v46.6l31.5,17.6V216.77z"/>
				<path class="st6" d="M779.79,192.5l-26.06,14.89c-3.37,1.92-5.44,5.5-5.44,9.38v39.93l31.5-17.6V192.5z"/>
				<polygon class="st6" points="802.29,202.86 788.79,210.65 788.79,247.9 748.29,260 802.29,260 				"/>
				<polygon class="st6" points="741.71,260 701.21,247.9 701.21,210.65 687.71,202.86 687.71,260 				"/>
				<circle class="st6" cx="715.9" cy="402.68" r="31.33"/>
				<path class="st6" d="M738.4,330.15c-13.82,0-25.03,11.2-25.03,25.03c0,2.5,0.37,4.92,1.06,7.2c0.49-0.02,0.98-0.03,1.47-0.03
					c13.08,0,24.73,6.26,32.1,15.95c9.06-3.77,15.42-12.7,15.42-23.11C763.43,341.36,752.22,330.15,738.4,330.15z"/>
			</g>
			<g>
				<path class="st6" d="M557.06,210.93c4.52-2.58,7.42,1.89,14.32,4.05c6.26,1.97,15.09,1.49,21.23-1.25
					c6.31-2.82,9.12-6.81,9.91-9.14c1.1-3.24,0.34-5.7-3.22-6.81c-1.73-0.54-4.68-0.94-9.82-3.12c-6.65-2.82-10.93-4.76-19.18-6.98
					c-10.57-2.84-40.29-3.2-40.29,23.6c0,12.18,8.79,22.51,15.54,29.26l26.78,26.87c3.29,3.63,7.24,8.22,7.24,12.22
					c0,4.81-4.56,6.36-4.56,6.36V310c0,0,14.3-2.5,21.56-16c9.38-17.42,1.13-31.39-10.84-43.26l-27.84-28.5
					C553.42,218.11,553.55,212.94,557.06,210.93z"/>
				<path class="st6" d="M585.72,320.74c11.97,11.87,20.22,25.84,10.84,43.26C589.3,377.5,575,380,575,380v-24.01
					c0,0,4.56-1.54,4.56-6.36c0-4-3.95-8.59-7.24-12.22l-28.04-28.16c-11.97-11.87-20.22-25.84-10.84-43.26
					c7.27-13.5,21.56-16,21.56-16v24.01c0,0-4.56,1.54-4.56,6.36c0,4,3.95,8.59,7.24,12.22L585.72,320.74z"/>
				<path class="st6" d="M544.28,379.26c-11.97-11.87-20.22-25.84-10.84-43.26c7.27-13.5,21.56-16,21.56-16v24.01
					c0,0-4.56,1.54-4.56,6.36c0,4,3.95,8.59,7.24,12.22l26.78,26.87c6.75,6.75,10.54,12.78,10.54,25.46c0,18.98-20,35.09-20,35.09
					s13.18-26.66-3.14-43.14L544.28,379.26z"/>
			</g>
		</g>
	</g>
</g>
<g id="Guidelines" class="st0">
	<line class="st9" x1="150" y1="1000" x2="150" y2="0"/>
	<line class="st9" x1="1150" y1="1000" x2="1150" y2="0"/>
	<line class="st9" x1="0" y1="150" x2="1300" y2="150"/>
	<line class="st9" x1="0" y1="550" x2="1300" y2="550"/>
	<line class="st9" x1="0" y1="650" x2="1300" y2="650"/>
	<line class="st9" x1="0" y1="750" x2="1300" y2="750"/>
	<line class="st9" x1="0" y1="810" x2="1300" y2="810"/>
	<line class="st9" x1="0" y1="850" x2="1300" y2="850"/>
	<line class="st10" x1="450" y1="0" x2="450" y2="550"/>
	<line class="st10" x1="850" y1="0" x2="850" y2="550"/>
	<g class="st2">
		<g>
			<line class="st8" x1="73.61" y1="99.39" x2="73.61" y2="137.61"/>
			<g>
				<polygon class="st3" points="65,135.1 73.61,150 82.21,135.1 				"/>
			</g>
		</g>
	</g>
	<g class="st2">
		<g>
			<line class="st8" x1="73.61" y1="378.58" x2="73.61" y2="537.61"/>
			<g>
				<polygon class="st3" points="65,535.1 73.61,550 82.21,535.1 				"/>
			</g>
		</g>
	</g>
	<g class="st2">
		<g>
			<line class="st8" x1="73.61" y1="12.39" x2="73.61" y2="50.61"/>
			<g>
				<polygon class="st3" points="65,14.9 73.61,0 82.21,14.9 				"/>
			</g>
		</g>
	</g>
	<g class="st2">
		<g>
			<line class="st8" x1="73.61" y1="949.39" x2="73.61" y2="987.61"/>
			<g>
				<polygon class="st3" points="65,985.1 73.61,1000 82.21,985.1 				"/>
			</g>
		</g>
	</g>
	<g class="st2">
		<g>
			<line class="st8" x1="73.61" y1="862.39" x2="73.61" y2="900.61"/>
			<g>
				<polygon class="st3" points="65,864.9 73.61,850 82.21,864.9 				"/>
			</g>
		</g>
	</g>
	<g class="st2">
		<g>
			<line class="st8" x1="1183.35" y1="346.97" x2="1162.39" y2="346.97"/>
			<g>
				<polygon class="st3" points="1164.9,338.36 1150,346.97 1164.9,355.57 				"/>
			</g>
		</g>
	</g>
	<g class="st2">
		<g>
			<line class="st8" x1="1287.61" y1="346.97" x2="1266.65" y2="346.97"/>
			<g>
				<polygon class="st3" points="1285.1,338.36 1300,346.97 1285.1,355.57 				"/>
			</g>
		</g>
	</g>
	<g class="st2">
		<g>
			<line class="st8" x1="73.61" y1="616.1" x2="73.61" y2="637.61"/>
			<g>
				<polygon class="st3" points="65,635.1 73.61,650 82.21,635.1 				"/>
			</g>
		</g>
	</g>
	<g class="st2">
		<g>
			<line class="st8" x1="73.61" y1="562.39" x2="73.61" y2="583.35"/>
			<g>
				<polygon class="st3" points="65,564.9 73.61,550 82.21,564.9 				"/>
			</g>
		</g>
	</g>
	<g class="st2">
		<g>
			<line class="st8" x1="73.61" y1="716.1" x2="73.61" y2="737.61"/>
			<g>
				<polygon class="st3" points="65,735.1 73.61,750 82.21,735.1 				"/>
			</g>
		</g>
	</g>
	<g class="st2">
		<g>
			<line class="st8" x1="73.61" y1="662.39" x2="73.61" y2="683.35"/>
			<g>
				<polygon class="st3" points="65,664.9 73.61,650 82.21,664.9 				"/>
			</g>
		</g>
	</g>
	<g class="st2">
		<g>
			<line class="st8" x1="73.61" y1="797.61" x2="73.61" y2="762.39"/>
			<g>
				<polygon class="st3" points="82.21,795.1 73.61,810 65,795.1 				"/>
			</g>
			<g>
				<polygon class="st3" points="82.21,764.9 73.61,750 65,764.9 				"/>
			</g>
		</g>
	</g>
	<g class="st2">
		<g>
			<line class="st8" x1="73.61" y1="837.61" x2="73.61" y2="822.39"/>
			<g>
				<polygon class="st3" points="82.21,835.1 73.61,850 65,835.1 				"/>
			</g>
			<g>
				<polygon class="st3" points="82.21,824.9 73.61,810 65,824.9 				"/>
			</g>
		</g>
	</g>
	<g class="st2">
		<g>
			<line class="st8" x1="73.61" y1="162.54" x2="73.61" y2="321.57"/>
			<g>
				<polygon class="st3" points="65,165.06 73.61,150.15 82.21,165.06 				"/>
			</g>
		</g>
	</g>
	<g class="st2">
		<g>
			<line class="st8" x1="621.42" y1="75.09" x2="462.39" y2="75.09"/>
			<g>
				<polygon class="st3" points="464.9,66.49 450,75.09 464.9,83.7 				"/>
			</g>
		</g>
	</g>
	<g class="st2">
		<g>
			<line class="st8" x1="837.61" y1="75.09" x2="678.58" y2="75.09"/>
			<g>
				<polygon class="st3" points="835.1,66.49 850,75.09 835.1,83.7 				"/>
			</g>
		</g>
	</g>
	<rect class="st9" width="1300" height="1000"/>
</g>
</svg>
