<?xml version="1.0" encoding="utf-8"?>
<!-- Generator: Adobe Illustrator 26.0.1, SVG Export Plug-In . SVG Version: 6.00 Build 0)  -->
<svg version="1.1" xmlns="http://www.w3.org/2000/svg" xmlns:xlink="http://www.w3.org/1999/xlink" x="0px" y="0px"
	 viewBox="0 0 1700 600" style="enable-background:new 0 0 1700 600;" xml:space="preserve">
<style type="text/css">
	.st0{display:none;}
	.st1{display:inline;opacity:0.2;fill:#00FFFF;}
	.st2{display:inline;fill:#00FFFF;}
	.st3{font-family:'Montserrat-Medium';}
	.st4{font-size:20.7106px;}
	.st5{display:inline;}
	.st6{font-family:'Montserrat-Regular';}
	.st7{fill:#00FFFF;}
	.st8{fill:#06113D;}
	.st9{fill:#FFFFFF;}
	.st10{fill:none;stroke:#00FFFF;stroke-width:1.7259;stroke-miterlimit:10;}
	.st11{display:inline;fill:none;stroke:#00FFFF;stroke-width:1.7259;stroke-miterlimit:10;}
	.st12{display:inline;fill:none;stroke:#00FFFF;stroke-width:1.7273;stroke-miterlimit:10;}
</style>
<g id="Safety_Area" class="st0">
	<path class="st1" d="M0,0v600h1700V0H0z M1550,450H150V150h1400V450z"/>
	<rect x="550" y="200" class="st1" width="1000" height="200"/>
	<rect x="150" y="150" class="st1" width="300" height="300"/>
	<text transform="matrix(1 0 0 1 51.5361 82.1671)" class="st2 st3 st4">1.5 X</text>
	<text transform="matrix(1 0 0 1 51.5361 532.1671)" class="st2 st3 st4">1.5 X</text>
	<text transform="matrix(1 0 0 1 1608.2283 80.5558)" class="st2 st3 st4">1.5 X</text>
	<text transform="matrix(1 0 0 1 1608.2283 532.7428)" class="st2 st3 st4">1.5 X</text>
	<text transform="matrix(1 0 0 1 1592.2241 255.6075)" class="st2 st6 st4">X</text>
	<text transform="matrix(1 0 0 1 1612.564 337.3463)" class="st2 st3 st4">0.6 X</text>
	<text transform="matrix(1 0 0 1 1612.0254 387.3463)" class="st2 st3 st4">0.4 X</text>
	<text transform="matrix(1 0 0 1 1020.4752 432.667)" class="st2 st3 st4">0.5 X</text>
	<text transform="matrix(1 0 0 1 1020.4752 182.6667)" class="st2 st3 st4">0.5 X</text>
	<g class="st5">
		<text transform="matrix(1 0 0 1 60.5249 306.0889)" class="st7 st3 st4">3X</text>
	</g>
	<text transform="matrix(1 0 0 1 493.9989 300.397)" class="st2 st3 st4">X</text>
</g>
<g id="Artwork">
	<g>
		<g>
			<g>
				<path class="st8" d="M612.34,203.79c7.32,2.52,13.71,7.5,19.17,14.92c5.46,7.42,8.18,17.85,8.18,31.29
					c0,19.29-5.13,32.45-15.37,39.47C614.07,296.49,602.73,300,590.3,300H550v-3.03c3.03,0,5.05-0.94,6.06-2.8
					c1-1.87,1.51-4.77,1.51-8.72v-70.91c0-3.94-0.51-6.84-1.51-8.71c-1.02-1.86-3.03-2.8-6.06-2.8V200h40.3
					C597.67,200,605.02,201.27,612.34,203.79 M615.53,283.48c7.02-6.97,10.53-18.13,10.53-33.48c0-15.35-3.51-26.51-10.53-33.49
					c-7.02-6.97-16.43-10.45-28.25-10.45h-16.07v87.88h16.07C599.09,293.94,608.51,290.46,615.53,283.48"/>
				<path class="st8" d="M936.92,203.03c-3.64,0-6.52,0.89-8.63,2.66c-2.12,1.76-3.84,4.47-5.16,8.11L894.19,300h-14.24l-27.88-90
					l-28.03,90H809.8l-28.79-86.21c-1.21-3.54-2.88-6.22-5-8.04c-2.12-1.82-5-2.72-8.64-2.72V200h38.64v3.03
					c-4.35,0-7.38,0.46-9.09,1.36c-1.72,0.91-2.57,2.33-2.57,4.24c0,1.11,0.35,2.83,1.06,5.16l25.31,76.36L848.89,200h14.25
					l28.03,90.15l25.6-76.36c0.81-2.12,1.21-3.89,1.21-5.31c0-1.82-0.88-3.18-2.65-4.09c-1.77-0.91-4.77-1.36-9.02-1.36V200h30.61
					V203.03z"/>
				<path class="st8" d="M953.72,296.97c3.03,0,5.05-0.94,6.06-2.81c1-1.86,1.51-4.77,1.51-8.71v-70.91c0-3.94-0.51-6.84-1.51-8.71
					c-1.01-1.86-3.03-2.8-6.06-2.8V200h18.92l65.77,84.7v-70.15c0-3.94-0.5-6.84-1.52-8.71c-1-1.86-3.03-2.8-6.05-2.8V200h21.21
					v3.04c-3.03,0-5.06,0.94-6.06,2.8c-1.02,1.87-1.52,4.77-1.52,8.71V300h-11.34l-65.77-84.7v70.15c0,3.94,0.5,6.85,1.52,8.71
					c1,1.87,3.03,2.81,6.06,2.81V300h-21.21V296.97z"/>
				<path class="st8" d="M1256.41,221.06l-2.88,0.46c-0.81-5.96-2.27-10.03-4.39-12.2c-2.12-2.17-5.15-3.26-9.09-3.26h-20.31v79.39
					c0,3.94,0.51,6.85,1.52,8.72c1.01,1.86,3.03,2.8,6.06,2.8V300h-28.79v-3.03c3.03,0,5.05-0.94,6.06-2.8
					c1.02-1.87,1.52-4.77,1.52-8.72v-79.39h-20.31c-3.94,0-6.97,1.09-9.09,3.26c-2.12,2.17-3.59,6.24-4.4,12.2l-2.88-0.46
					l2.12-18.03l0.46-3.03h81.81l0.46,3.03L1256.41,221.06z"/>
				<path class="st8" d="M1359.54,294.31c2.27,1.77,5.22,2.66,8.86,2.66V300h-38.79v-3.03c4.14,0,7.07-0.4,8.79-1.21
					c1.72-0.81,2.58-2.07,2.58-3.79c0-1.21-0.46-3.08-1.36-5.61l-12.27-31.96h-35.46l-12.27,31.96c-0.91,2.53-1.36,4.4-1.36,5.61
					c0,1.72,0.85,2.98,2.57,3.79c1.72,0.81,4.65,1.21,8.79,1.21V300h-30.6v-3.03c3.64,0,6.59-0.88,8.86-2.66
					c2.27-1.76,4.06-4.42,5.38-7.95l29.09-75.6c0.4-1.21,0.61-2.37,0.61-3.49c0-1.41-0.58-2.48-1.74-3.18
					c-1.17-0.7-3.21-1.06-6.13-1.06V200h25.91l33.18,86.36C1355.47,289.9,1357.27,292.55,1359.54,294.31 M1294.32,248.33h30.76
					l-15.45-39.85L1294.32,248.33z"/>
				<path class="st8" d="M1454.87,221.06l-2.88,0.46c-0.81-5.96-2.27-10.03-4.39-12.2c-2.12-2.17-5.15-3.26-9.09-3.26h-20.31v79.39
					c0,3.94,0.51,6.85,1.52,8.72c1.01,1.86,3.03,2.8,6.06,2.8V300h-28.79v-3.03c3.03,0,5.05-0.94,6.06-2.8
					c1.02-1.87,1.52-4.77,1.52-8.72v-79.39h-20.31c-3.94,0-6.97,1.09-9.09,3.26c-2.12,2.17-3.59,6.24-4.4,12.2l-2.87-0.46
					l2.12-18.03l0.46-3.03h81.81l0.46,3.03L1454.87,221.06z"/>
				<path class="st8" d="M1550,278.94l-2.12,18.03l-0.46,3.03h-70.45v-3.03c3.03,0,5.05-0.94,6.06-2.8
					c1.01-1.87,1.52-4.77,1.52-8.72v-70.9c0-3.94-0.51-6.85-1.52-8.72c-1.01-1.86-3.03-2.8-6.06-2.8V200h68.94l0.45,3.04l2.12,18.03
					l-2.88,0.46c-0.81-5.96-2.27-10.02-4.39-12.2c-2.12-2.17-5.15-3.26-9.09-3.26h-33.94v40.15h20.91c3.94,0,6.84-0.5,8.71-1.52
					c1.86-1,2.8-3.03,2.8-6.06h3.04v21.21h-3.04c0-3.03-0.94-5.05-2.8-6.06c-1.87-1.01-4.77-1.51-8.71-1.51h-20.91v41.66h35.46
					c3.94,0,6.96-1.09,9.09-3.26c2.12-2.17,3.58-6.23,4.39-12.2L1550,278.94z"/>
				<path class="st8" d="M668.52,223.49c3.89-7.77,9.44-13.88,16.67-18.33c7.21-4.44,15.62-6.66,25.21-6.66
					c9.59,0,18,2.22,25.23,6.66c7.21,4.45,12.77,10.56,16.66,18.33c3.89,7.78,5.83,16.62,5.83,26.51c0,9.9-1.94,18.73-5.83,26.51
					c-3.89,7.78-9.44,13.89-16.66,18.33c-7.23,4.45-15.63,6.67-25.23,6.67c-9.6,0-18-2.22-25.21-6.67
					c-7.23-4.44-12.78-10.55-16.67-18.33c-3.89-7.77-5.83-16.61-5.83-26.51C662.69,240.11,664.63,231.27,668.52,223.49
					 M688.14,284.23c6.16,7.27,14.24,10.91,24.24,10.91c1,0,2.72-0.1,5.15-0.31c8.68-1.01,15.42-4.97,20.22-11.89
					c4.8-6.91,7.19-15.83,7.19-26.74c0-2.82-0.25-6.26-0.76-10.3c-1.51-12.82-5.36-22.88-11.51-30.14
					c-6.16-7.27-14.24-10.91-24.23-10.91c-1.01,0-2.72,0.1-5.15,0.3c-8.69,1.01-15.43,4.97-20.22,11.89
					c-4.8,6.92-7.2,15.82-7.2,26.74c0,2.82,0.25,6.26,0.76,10.3C678.14,266.91,681.98,276.96,688.14,284.23"/>
				<path class="st8" d="M1114.54,241.51c-23.48-7.62-26.33-14.7-26.33-19.68c0-5.61,3.21-17.27,25.8-17.27
					c30.17,0,28.59,18.09,28.59,18.09l2.99-0.46l2.44-17.21c0,0-11.62-6.48-34.98-6.48c-27.43,0-38.47,12.79-38.47,26.51
					c0,10.17,5.84,19.73,34.39,28.78c29.13,9.23,30.29,16.69,30.29,22.98c0,12.31-10.86,18.68-28.16,18.68
					c-18.21,0-31.88-8.16-30.28-19.95l-3.5,0.54l-3.87,17.29c0,0,14.47,8.18,40,8.18c23.05,0,40-7.47,40-26.41
					C1153.45,258.09,1143.64,250.95,1114.54,241.51z"/>
			</g>
			<g>
				<g>
					<path class="st8" d="M550,359.98h6.23v16.63h19.06v-16.63h6.23V400h-6.23v-17.38h-19.06V400H550V359.98z"/>
					<path class="st8" d="M597.93,359.98h25.56v5.9h-19.33v10.89h17.93v5.9h-17.93v11.43h19.39v5.9h-25.62V359.98z"/>
					<path class="st8" d="M659.83,390.14H645.1l-3.79,9.86h-6.72l15.92-40.02h4.06L670.34,400h-6.72L659.83,390.14z M647.11,384.4
						h10.83l-5.42-14.51L647.11,384.4z"/>
					<path class="st8" d="M682.32,359.98h6.23v34.01h21.12V400h-27.35V359.98z"/>
					<path class="st8" d="M713.54,366.04v-6.07h29.73v6.07h-11.7V400h-6.34v-33.96H713.54z"/>
					<path class="st8" d="M755.31,359.98h6.23v16.63h19.06v-16.63h6.23V400h-6.23v-17.38h-19.06V400h-6.23V359.98z"/>
					<path class="st8" d="M822.71,392.69l4.22-4.06c2.33,4.17,6.07,6.12,9.91,6.12c4.28,0,6.82-2.55,6.82-5.47
						c0-2.49-1.84-4.01-3.95-5.15c-2.65-1.35-5.9-2.44-8.66-4.06c-3.47-2.11-6.07-5.15-6.07-9.69c0-6.17,4.93-11.1,12.56-11.1
						c4.39,0,8.88,1.68,12.19,5.74l-3.85,4.28c-2.33-2.92-5.63-4.12-8.29-4.12c-3.41,0-5.96,1.9-5.96,4.87
						c0,2.33,1.62,3.79,3.36,4.77c2.17,1.25,6.66,3.03,9.42,4.6c3.63,2,6.12,4.93,6.12,9.53c0,6.88-5.74,11.7-13.7,11.7
						C831.16,400.65,825.69,398,822.71,392.69z"/>
					<path class="st8" d="M861.62,380.12c0-12.35,9.48-20.85,20.74-20.85c7.42,0,13.86,3.57,17.22,8.61l-4.44,4.01
						c-2.92-3.9-7.37-6.55-12.62-6.55c-8.01,0-14.46,6.23-14.46,14.78c0,8.5,6.28,14.46,14.41,14.46c5.31,0,9.86-2.55,12.89-6.5
						l4.44,3.9c-3.57,4.93-9.96,8.61-17.6,8.61C870.88,400.6,861.62,392.36,861.62,380.12z"/>
					<path class="st8" d="M918.82,359.98V400h-6.23v-40.02H918.82z"/>
					<path class="st8" d="M935.13,359.98h25.56v5.9h-19.33v10.89h17.93v5.9h-17.93v11.43h19.39v5.9h-25.62V359.98z"/>
					<path class="st8" d="M1007.96,359.98V400h-3.68l-22.91-27.13V400h-6.17v-40.02h3.25l23.34,27.35v-27.35H1007.96z"/>
					<path class="st8" d="M1022.06,380.12c0-12.35,9.48-20.85,20.74-20.85c7.42,0,13.86,3.57,17.22,8.61l-4.44,4.01
						c-2.92-3.9-7.37-6.55-12.62-6.55c-8.01,0-14.46,6.23-14.46,14.78c0,8.5,6.28,14.46,14.41,14.46c5.31,0,9.86-2.55,12.89-6.5
						l4.44,3.9c-3.57,4.93-9.96,8.61-17.6,8.61C1031.32,400.6,1022.06,392.36,1022.06,380.12z"/>
					<path class="st8" d="M1073.06,359.98h25.56v5.9h-19.33v10.89h17.93v5.9h-17.93v11.43h19.39v5.9h-25.62V359.98z"/>
					<path class="st8" d="M1109.82,392.69l4.22-4.06c2.33,4.17,6.07,6.12,9.91,6.12c4.28,0,6.82-2.55,6.82-5.47
						c0-2.49-1.84-4.01-3.95-5.15c-2.65-1.35-5.9-2.44-8.66-4.06c-3.47-2.11-6.07-5.15-6.07-9.69c0-6.17,4.93-11.1,12.56-11.1
						c4.39,0,8.88,1.68,12.19,5.74l-3.85,4.28c-2.33-2.92-5.63-4.12-8.29-4.12c-3.41,0-5.96,1.9-5.96,4.87
						c0,2.33,1.62,3.79,3.36,4.77c2.17,1.25,6.66,3.03,9.42,4.6c3.63,2,6.12,4.93,6.12,9.53c0,6.88-5.74,11.7-13.7,11.7
						C1118.27,400.65,1112.8,398,1109.82,392.69z"/>
					<path class="st8" d="M1175.43,386.14v-26.16h6.23v25.35c0,6.12,3.25,9.26,8.61,9.26c5.31,0,8.56-3.36,8.56-9.26v-25.35h6.28
						v26.16c0,9.48-6.34,14.57-14.84,14.57C1181.82,400.7,1175.43,395.61,1175.43,386.14z"/>
					<path class="st8" d="M1253.98,359.98V400h-3.68l-22.91-27.13V400h-6.17v-40.02h3.25l23.34,27.35v-27.35H1253.98z"/>
					<path class="st8" d="M1276.6,359.98V400h-6.23v-40.02H1276.6z"/>
					<path class="st8" d="M1326.41,359.98L1309.57,400h-4.17l-17.01-40.02h7.15l12.02,29.73l11.91-29.73H1326.41z"/>
					<path class="st8" d="M1338.38,359.98h25.56v5.9h-19.33v10.89h17.93v5.9h-17.93v11.43h19.39v5.9h-25.62V359.98z"/>
					<path class="st8" d="M1389.98,384.29h-5.31V400h-6.23v-40.02h14.13c8.77,0,12.94,6.01,12.94,12.19c0,4.93-2.87,9.86-8.94,11.54
						l10.67,16.3h-7.53L1389.98,384.29z M1384.68,378.5h6.93c5.47,0,7.47-3.2,7.47-6.39c0-3.3-2.17-6.23-6.5-6.23h-7.91V378.5z"/>
					<path class="st8" d="M1416.53,392.69l4.22-4.06c2.33,4.17,6.07,6.12,9.91,6.12c4.28,0,6.82-2.55,6.82-5.47
						c0-2.49-1.84-4.01-3.95-5.15c-2.65-1.35-5.9-2.44-8.67-4.06c-3.47-2.11-6.07-5.15-6.07-9.69c0-6.17,4.93-11.1,12.56-11.1
						c4.39,0,8.88,1.68,12.19,5.74l-3.85,4.28c-2.33-2.92-5.63-4.12-8.29-4.12c-3.41,0-5.96,1.9-5.96,4.87
						c0,2.33,1.62,3.79,3.36,4.77c2.17,1.25,6.66,3.03,9.42,4.6c3.63,2,6.12,4.93,6.12,9.53c0,6.88-5.74,11.7-13.7,11.7
						C1424.97,400.65,1419.5,398,1416.53,392.69z"/>
					<path class="st8" d="M1464.53,359.98V400h-6.23v-40.02H1464.53z"/>
					<path class="st8" d="M1476.5,366.04v-6.07h29.73v6.07h-11.7V400h-6.34v-33.96H1476.5z"/>
					<path class="st8" d="M1536.24,385.76V400h-6.23v-14.24l-13.59-25.78h7.04l9.69,19.39l9.8-19.39h7.04L1536.24,385.76z"/>
				</g>
			</g>
		</g>
		<g>
			<g>
				<path class="st8" d="M150,150v22.5C150,371.25,300,450,300,450s150-78.75,150-277.5V150H150z M232.97,377.78
					c-20.84-24.9-37.43-52.77-49.32-82.83c-14.87-37.58-22.4-78.78-22.4-122.45v-11.25h133.13v272.21
					C279,423.24,255.18,404.32,232.97,377.78z M367.03,377.78c-22.21,26.54-46.03,45.47-61.4,55.67V264.36h120.97
					c-2.9,10.43-6.31,20.64-10.25,30.59C404.46,325.01,387.86,352.88,367.03,377.78z M438.75,172.5c0,27.99-3.11,54.96-9.25,80.61
					H305.63v-91.86h133.12V172.5z"/>
				<path class="st8" d="M368.78,200.08c0-2.91-1.56-5.59-4.08-7.03l-19.54-11.17v34.95l23.63,13.2V200.08z"/>
				<path class="st8" d="M397.34,181.88l-19.54,11.17c-2.52,1.44-4.08,4.13-4.08,7.03v29.95l23.62-13.2V181.88z"/>
				<polygon class="st8" points="414.22,189.65 404.09,195.49 404.09,223.42 373.72,232.5 414.22,232.5 				"/>
				<polygon class="st8" points="368.78,232.5 338.41,223.42 338.41,195.49 328.28,189.65 328.28,232.5 				"/>
				<circle class="st8" cx="349.42" cy="339.51" r="23.5"/>
				<path class="st8" d="M366.3,285.12c-10.37,0-18.77,8.4-18.77,18.77c0,1.88,0.28,3.69,0.79,5.4c0.37-0.01,0.73-0.02,1.1-0.02
					c9.81,0,18.55,4.7,24.08,11.96c6.79-2.82,11.57-9.52,11.57-17.34C385.07,293.52,376.67,285.12,366.3,285.12z"/>
			</g>
			<g>
				<path class="st8" d="M230.29,195.7c3.39-1.94,5.57,1.41,10.74,3.04c4.69,1.47,11.32,1.12,15.92-0.94
					c4.73-2.11,6.84-5.11,7.43-6.86c0.82-2.43,0.26-4.27-2.42-5.1c-1.3-0.4-3.51-0.7-7.37-2.34c-4.99-2.12-8.2-3.57-14.39-5.23
					c-7.93-2.13-30.22-2.4-30.22,17.7c0,9.14,6.59,16.88,11.66,21.94l20.08,20.15c2.47,2.72,5.43,6.17,5.43,9.17
					c0,3.61-3.42,4.77-3.42,4.77V270c0,0,10.72-1.87,16.17-12c7.03-13.07,0.85-23.55-8.13-32.45l-20.88-21.38
					C227.57,201.08,227.66,197.2,230.29,195.7z"/>
				<path class="st8" d="M251.79,278.06c8.98,8.9,15.16,19.38,8.13,32.45c-5.45,10.12-16.17,12-16.17,12v-18.01
					c0,0,3.42-1.16,3.42-4.77c0-3-2.96-6.45-5.43-9.17l-21.03-21.12c-8.98-8.9-15.16-19.38-8.13-32.45c5.45-10.12,16.17-12,16.17-12
					v18.01c0,0-3.42,1.16-3.42,4.77c0,3,2.96,6.45,5.43,9.17L251.79,278.06z"/>
				<path class="st8" d="M220.71,321.95c-8.98-8.9-15.16-19.38-8.13-32.45c5.45-10.12,16.17-12,16.17-12v18.01
					c0,0-3.42,1.16-3.42,4.77c0,3,2.96,6.45,5.43,9.17l20.08,20.15c5.06,5.06,7.91,9.59,7.91,19.09c0,14.24-15,26.32-15,26.32
					s9.89-19.99-2.36-32.36L220.71,321.95z"/>
			</g>
		</g>
	</g>
</g>
<g id="Guidelines" class="st0">
	<g class="st5">
		<g>
			<line class="st10" x1="73.61" y1="99.39" x2="73.61" y2="137.61"/>
			<g>
				<polygon class="st7" points="65,135.1 73.61,150 82.21,135.1 				"/>
			</g>
		</g>
	</g>
	<g class="st5">
		<g>
			<line class="st10" x1="73.61" y1="12.39" x2="73.61" y2="50.61"/>
			<g>
				<polygon class="st7" points="65,14.9 73.61,0 82.21,14.9 				"/>
			</g>
		</g>
	</g>
	<g class="st5">
		<g>
			<line class="st10" x1="73.61" y1="549.39" x2="73.61" y2="587.61"/>
			<g>
				<polygon class="st7" points="65,585.1 73.61,600 82.21,585.1 				"/>
			</g>
		</g>
	</g>
	<g class="st5">
		<g>
			<line class="st10" x1="73.61" y1="462.39" x2="73.61" y2="500.61"/>
			<g>
				<polygon class="st7" points="65,464.9 73.61,450 82.21,464.9 				"/>
			</g>
		</g>
	</g>
	<line class="st11" x1="150" y1="600" x2="150" y2="0"/>
	<line class="st11" x1="1550" y1="600" x2="1550" y2="0"/>
	<line class="st11" x1="550" y1="600" x2="550" y2="0"/>
	<line class="st11" x1="450" y1="600" x2="450" y2="0"/>
	<g class="st5">
		<g>
			<line class="st10" x1="1583.35" y1="74.47" x2="1562.39" y2="74.47"/>
			<g>
				<polygon class="st7" points="1564.9,65.86 1550,74.47 1564.9,83.07 				"/>
			</g>
		</g>
	</g>
	<g class="st5">
		<g>
			<line class="st10" x1="1687.61" y1="74.47" x2="1666.65" y2="74.47"/>
			<g>
				<polygon class="st7" points="1685.1,65.86 1700,74.47 1685.1,83.07 				"/>
			</g>
		</g>
	</g>
	<g class="st5">
		<g>
			<line class="st10" x1="1583.35" y1="526.65" x2="1562.39" y2="526.65"/>
			<g>
				<polygon class="st7" points="1564.9,518.05 1550,526.65 1564.9,535.26 				"/>
			</g>
		</g>
	</g>
	<g class="st5">
		<g>
			<line class="st10" x1="1687.61" y1="526.65" x2="1666.65" y2="526.65"/>
			<g>
				<polygon class="st7" points="1685.1,518.05 1700,526.65 1685.1,535.26 				"/>
			</g>
		</g>
	</g>
	<line class="st11" x1="550" y1="200" x2="1700" y2="200"/>
	<line class="st11" x1="550" y1="300" x2="1700" y2="300"/>
	<line class="st11" x1="550" y1="360" x2="1700" y2="360"/>
	<line class="st11" x1="550" y1="400" x2="1700" y2="400"/>
	<g class="st5">
		<g>
			<line class="st10" x1="1599.02" y1="266.1" x2="1599.02" y2="287.61"/>
			<g>
				<polygon class="st7" points="1590.41,285.1 1599.02,300 1607.62,285.1 				"/>
			</g>
		</g>
	</g>
	<g class="st5">
		<g>
			<line class="st10" x1="1599.02" y1="212.39" x2="1599.02" y2="233.35"/>
			<g>
				<polygon class="st7" points="1590.41,214.9 1599.02,200 1607.62,214.9 				"/>
			</g>
		</g>
	</g>
	<g class="st5">
		<g>
			<line class="st10" x1="1599.02" y1="347.61" x2="1599.02" y2="312.39"/>
			<g>
				<polygon class="st7" points="1607.62,345.1 1599.02,360 1590.41,345.1 				"/>
			</g>
			<g>
				<polygon class="st7" points="1607.62,314.9 1599.02,300 1590.41,314.9 				"/>
			</g>
		</g>
	</g>
	<g class="st5">
		<g>
			<line class="st10" x1="1599.02" y1="387.61" x2="1599.02" y2="372.39"/>
			<g>
				<polygon class="st7" points="1607.62,385.1 1599.02,400 1590.41,385.1 				"/>
			</g>
			<g>
				<polygon class="st7" points="1607.62,374.9 1599.02,360 1590.41,374.9 				"/>
			</g>
		</g>
	</g>
	<g class="st5">
		<g>
			<line class="st10" x1="1006.48" y1="437.61" x2="1006.48" y2="412.39"/>
			<g>
				<polygon class="st7" points="1015.09,435.1 1006.48,450 997.88,435.1 				"/>
			</g>
			<g>
				<polygon class="st7" points="1015.09,414.9 1006.48,400 997.88,414.9 				"/>
			</g>
		</g>
	</g>
	<g class="st5">
		<g>
			<line class="st10" x1="1006.48" y1="187.61" x2="1006.48" y2="162.39"/>
			<g>
				<polygon class="st7" points="1015.09,185.1 1006.48,200 997.88,185.1 				"/>
			</g>
			<g>
				<polygon class="st7" points="1015.09,164.9 1006.48,150 997.88,164.9 				"/>
			</g>
		</g>
	</g>
	<g class="st5">
		<g>
			<line class="st10" x1="73.61" y1="321.45" x2="73.61" y2="437.61"/>
			<g>
				<polygon class="st7" points="65,435.1 73.61,450 82.21,435.1 				"/>
			</g>
		</g>
	</g>
	<g class="st5">
		<g>
			<line class="st10" x1="73.61" y1="162.54" x2="73.61" y2="278.7"/>
			<g>
				<polygon class="st7" points="65,165.06 73.61,150.15 82.21,165.06 				"/>
			</g>
		</g>
	</g>
	<line class="st11" x1="0" y1="150" x2="1700" y2="150"/>
	<rect x="0" class="st11" width="1700" height="600"/>
	<line class="st11" x1="0" y1="450" x2="1700" y2="450"/>
	<g class="st5">
		<g>
			<g>
				<line class="st10" x1="484.38" y1="294.31" x2="462.87" y2="294.31"/>
				<g>
					<polygon class="st7" points="465.39,285.7 450.48,294.31 465.39,302.91 					"/>
				</g>
			</g>
		</g>
		<g>
			<g>
				<line class="st10" x1="538.1" y1="294.31" x2="517.14" y2="294.31"/>
				<g>
					<polygon class="st7" points="535.58,285.7 550.48,294.31 535.58,302.91 					"/>
				</g>
			</g>
		</g>
	</g>
</g>
</svg>
